mtllib cornellbox.mtl
o floor
v -1.010000 -0.000000 0.990000
v 1.000000 -0.000000 0.990000
v 1.000000 0.000000 -1.040000
v -0.990000 0.000000 -1.040000
vn 0.0000 1.0000 0.0000
usemtl floor
s off
f 1//1 2//1 3//1 4//1
o shortBox
v 0.530000 0.600000 0.750000
v 0.700000 0.600000 0.170000
v 0.130000 0.600000 0.000000
v -0.050000 0.600000 0.570000
v -0.050000 -0.000000 0.570000
v -0.050000 0.600000 0.570000
v 0.130000 0.600000 0.000000
v 0.130000 0.000000 0.000000
v 0.530000 -0.000000 0.750000
v 0.530000 0.600000 0.750000
v -0.050000 0.600000 0.570000
v -0.050000 -0.000000 0.570000
v 0.700000 -0.000000 0.170000
v 0.700000 0.600000 0.170000
v 0.530000 0.600000 0.750000
v 0.530000 -0.000000 0.750000
v 0.130000 0.000000 0.000000
v 0.130000 0.600000 0.000000
v 0.700000 0.600000 0.170000
v 0.700000 -0.000000 0.170000
v 0.530000 -0.000000 0.750000
v 0.700000 -0.000000 0.170000
v 0.130000 0.000000 0.000000
v -0.050000 -0.000000 0.570000
vn -0.0000 1.0000 0.0000
vn -0.9536 0.0000 -0.3011
vn -0.2964 -0.0000 0.9551
vn 0.9596 -0.0000 0.2813
vn 0.2858 0.0000 -0.9583
usemtl shortBox
s off
f 5//2 6//2 7//2 8//2
f 9//3 10//3 11//3 12//3
f 13//4 14//4 15//4 16//4
f 17//5 18//5 19//5 20//5
f 21//6 22//6 23//6 24//6
f 25//2 26//2 27//2 28//2
o tallBox
v -0.530000 1.200000 0.090000
v 0.040000 1.200000 -0.090000
v -0.140000 1.200000 -0.670000
v -0.710000 1.200000 -0.490000
v -0.530000 -0.000000 0.090000
v -0.530000 1.200000 0.090000
v -0.710000 1.200000 -0.490000
v -0.710000 0.000000 -0.490000
v -0.710000 0.000000 -0.490000
v -0.710000 1.200000 -0.490000
v -0.140000 1.200000 -0.670000
v -0.140000 0.000000 -0.670000
v -0.140000 0.000000 -0.670000
v -0.140000 1.200000 -0.670000
v 0.040000 1.200000 -0.090000
v 0.040000 0.000000 -0.090000
v 0.040000 0.000000 -0.090000
v 0.040000 1.200000 -0.090000
v -0.530000 1.200000 0.090000
v -0.530000 -0.000000 0.090000
v -0.530000 -0.000000 0.090000
v 0.040000 0.000000 -0.090000
v -0.140000 0.000000 -0.670000
v -0.710000 0.000000 -0.490000
vn 0.0000 1.0000 0.0000
vn -0.9551 0.0000 0.2964
vn -0.3011 0.0000 -0.9536
vn 0.9551 0.0000 -0.2964
vn 0.3011 -0.0000 0.9536
usemtl tallBox
s off
f 29//7 30//7 31//7 32//7
f 33//8 34//8 35//8 36//8
f 37//9 38//9 39//9 40//9
f 41//10 42//10 43//10 44//10
f 45//11 46//11 47//11 48//11
f 49//7 50//7 51//7 52//7
o backWall
v -0.990000 0.000000 -1.040000
v 1.000000 0.000000 -1.040000
v 1.000000 1.990000 -1.040000
v -1.020000 1.990000 -1.040000
vn 0.0000 -0.0000 1.0000
usemtl backWall
s off
f 53//12 54//12 55//12 56//12
o light
v -0.240000 1.980000 0.160000
v -0.240000 1.980000 -0.220000
v 0.230000 1.980000 -0.220000
v 0.230000 1.980000 0.160000
vn 0.0000 -1.0000 0.0000
usemtl light
s off
f 57//13 58//13 59//13 60//13
o rightWall
v 1.000000 0.000000 -1.040000
v 1.000000 -0.000000 0.990000
v 1.000000 1.990000 0.990000
v 1.000000 1.990000 -1.040000
vn -1.0000 0.0000 0.0000
usemtl rightWall
s off
f 61//14 62//14 63//14 64//14
o leftWall
v -1.010000 -0.000000 0.990000
v -0.990000 0.000000 -1.040000
v -1.020000 1.990000 -1.040000
v -1.020000 1.990000 0.990000
vn 0.9999 0.0100 0.0049
usemtl leftWall
s off
f 65//15 66//15 67//15 68//15
o ceiling
v -1.020000 1.990000 0.990000
v -1.020000 1.990000 -1.040000
v 1.000000 1.990000 -1.040000
v 1.000000 1.990000 0.990000
vn 0.0000 -1.0000 -0.0000
usemtl ceiling
s off
f 69//16 70//16 71//16 72//16
