# Blender v2.75 (sub 0) OBJ File: ''
# www.blender.org
mtllib cornellbox.mtl
o shortbox
v 0.700000 0.600000 0.170000
v 0.130000 0.600000 0.000000
v -0.050000 0.600000 0.570000
v -0.050000 0.600000 0.570000
v 0.130000 0.600000 0.000000
v 0.130000 0.000000 0.000000
v 0.530000 0.600000 0.750000
v -0.050000 0.600000 0.570000
v -0.050000 -0.000000 0.570000
v 0.130000 0.600000 0.000000
v 0.700000 0.600000 0.170000
v 0.700000 -0.000000 0.170000
v 0.700000 0.600000 0.170000
v 0.530000 0.600000 0.750000
v 0.530000 -0.000000 0.750000
v 0.530000 0.600000 0.750000
v -0.050000 -0.000000 0.570000
v 0.530000 -0.000000 0.750000
v 0.130000 0.000000 0.000000
v 0.700000 -0.000000 0.170000
vn -0.000000 1.000000 0.000000
vn -0.953600 0.000000 -0.301100
vn -0.296400 -0.000000 0.955100
vn 0.285800 0.000000 -0.958300
vn 0.959600 -0.000000 0.281300
usemtl shortbox
s 1
f 1//1 2//1 3//1
f 4//2 5//2 6//2
f 7//3 8//3 9//3
f 10//4 11//4 12//4
f 13//5 14//5 15//5
f 16//1 1//1 3//1
f 17//2 4//2 6//2
f 18//3 7//3 9//3
f 19//4 10//4 12//4
f 20//5 13//5 15//5
o floor
v -5.000000 -0.000001 5.000000
v 5.000000 -0.000001 5.000000
v 5.000000 0.000001 -5.000000
v -5.000000 0.000001 -5.000000
vn 0.000000 1.000000 0.000000
usemtl floor
s off
f 21//6 22//6 23//6 24//6
o leftwall
v -1.010000 -0.000000 0.990000
v -0.990000 0.000000 -1.040000
v -1.020000 1.990000 -1.040000
v -1.020000 1.990000 0.990000
vn 0.999800 0.015100 0.009900
vn 1.000000 0.005000 0.000000
usemtl leftwall
s 1
f 25//7 26//7 27//7
f 28//8 25//8 27//8
o tallbox
v 0.039420 1.200000 -0.090000
v -0.140580 1.200000 -0.670000
v -0.710580 1.200000 -0.490000
v -0.530580 1.200000 0.090000
v -0.710580 1.200000 -0.490000
v -0.710580 0.000000 -0.490000
v -0.710580 1.200000 -0.490000
v -0.140580 1.200000 -0.670000
v -0.140580 0.000000 -0.670000
v -0.140580 1.200000 -0.670000
v 0.039420 1.200000 -0.090000
v 0.039420 0.000000 -0.090000
v 0.039420 1.200000 -0.090000
v -0.530580 1.200000 0.090000
v -0.530580 -0.000000 0.090000
v -0.530580 1.200000 0.090000
v -0.530580 -0.000000 0.090000
v -0.710580 0.000000 -0.490000
v -0.140580 0.000000 -0.670000
v 0.039420 0.000000 -0.090000
vn 0.000000 1.000000 0.000000
vn -0.955100 0.000000 0.296400
vn -0.301100 0.000000 -0.953600
vn 0.955100 0.000000 -0.296400
vn 0.301100 -0.000000 0.953600
usemtl tallbox
s 1
f 29//9 30//9 31//9
f 32//10 33//10 34//10
f 35//11 36//11 37//11
f 38//12 39//12 40//12
f 41//13 42//13 43//13
f 44//9 29//9 31//9
f 45//10 32//10 34//10
f 46//11 35//11 37//11
f 47//12 38//12 40//12
f 48//13 41//13 43//13
o backwall
v -0.990000 0.000000 -1.040000
v 1.000000 0.000000 -1.040000
v 1.000000 1.990000 -1.040000
v -1.020000 1.990000 -1.040000
vn 0.000000 -0.000000 1.000000
usemtl backwall
s 1
f 49//14 50//14 51//14
f 52//14 49//14 51//14
o rightwall
v 1.000000 -0.000000 0.990000
v 1.000000 1.990000 0.990000
v 1.000000 1.990000 -1.040000
v 1.000000 0.000000 -1.040000
vn -1.000000 0.000000 0.000000
usemtl rightwall
s 1
f 53//15 54//15 55//15
f 56//15 53//15 55//15
o ceiling
v -1.020000 1.990000 -1.040000
v 1.000000 1.990000 -1.040000
v 1.000000 1.990000 0.990000
v -1.020000 1.990000 0.990000
vn 0.000000 -1.000000 -0.000000
usemtl ceiling
s 1
f 57//16 58//16 59//16
f 60//16 57//16 59//16
o light
v -0.240000 1.980000 -0.220000
v 0.230000 1.980000 -0.220000
v 0.230000 1.980000 0.160000
v -0.240000 1.980000 0.160000
vn 0.000000 -1.000000 0.000000
usemtl light
s 1
f 61//17 62//17 63//17
f 64//17 61//17 63//17
